<?xml version="1.0" standalone="no"?>
<!DOCTYPE svg PUBLIC "-//W3C//DTD SVG 20010904//EN"
 "http://www.w3.org/TR/2001/REC-SVG-20010904/DTD/svg10.dtd">
<svg version="1.0" xmlns="http://www.w3.org/2000/svg"
 width="107.000000pt" height="98.000000pt" viewBox="0 0 107.000000 98.000000"
 preserveAspectRatio="xMidYMid meet">
<metadata>
Created by potrace 1.16, written by Peter Selinger 2001-2019
</metadata>
<g transform="translate(0.000000,98.000000) scale(0.100000,-0.100000)"
fill="#000000" stroke="none">
<path d="M1 654 l1 -327 60 7 c34 3 132 6 219 6 l159 0 0 110 0 109 -143 4
-142 3 145 -1 145 0 2 -257 2 -258 -200 0 c-109 0 -199 3 -199 8 0 4 88 6 195
4 190 -3 195 -2 195 17 0 20 -7 21 -163 24 l-162 3 163 2 162 2 0 50 0 50
-154 0 c-162 0 -186 3 -186 26 0 10 -14 14 -50 14 l-50 0 0 -125 0 -125 134 0
c122 0 134 2 131 18 -1 9 0 11 2 5 4 -10 93 -13 404 -13 l399 0 0 105 0 105
-140 0 c-132 0 -140 -1 -140 -19 0 -11 8 -22 18 -24 9 -3 -30 -4 -88 -4 -95 1
-97 1 -23 4 75 4 82 5 85 26 3 21 7 22 146 25 83 1 142 7 142 12 0 6 -86 10
-225 10 -124 0 -225 3 -225 8 0 4 101 6 225 4 l225 -3 0 360 0 361 -535 0
-534 0 0 -326z m840 248 c49 2 89 0 89 -4 0 -5 -71 -7 -157 -6 -87 1 -130 3
-95 5 l62 4 2 37 1 37 4 -38 4 -38 90 3z m-392 -110 c-1 -59 -4 -95 -6 -79
l-4 27 -165 0 -164 0 0 -24 c0 -19 6 -26 28 -29 15 -2 1 -5 -30 -6 -50 -1 -58
-4 -58 -21 0 -16 8 -20 58 -23 45 -2 40 -3 -23 -4 -44 0 -72 1 -63 4 9 2 18
14 20 26 2 15 11 23 30 25 21 3 27 9 30 30 l3 27 168 3 167 2 0 40 0 39 -152
3 -153 3 -3 32 c-3 31 -3 32 45 35 26 2 99 2 161 0 l112 -3 -1 -107z m429 -49
c-49 -2 -127 -2 -175 0 -49 1 -9 3 87 3 96 0 136 -2 88 -3z m167 -118 l0 -60
-212 -5 c-116 -3 -209 -2 -206 3 2 4 96 7 209 7 l204 0 0 55 0 55 -72 1 c-49
1 -63 3 -43 8 17 3 50 4 75 1 l45 -5 0 -60z m-938 -102 c-3 -10 -5 -4 -5 12 0
17 2 24 5 18 2 -7 2 -21 0 -30z m899 -119 c-4 -10 -24 -14 -70 -14 l-65 0 -4
-62 -3 -63 -2 68 -2 67 70 0 70 0 2 58 2 57 3 -49 c2 -27 2 -55 -1 -62z m-796
66 c0 -5 -5 -10 -11 -10 -5 0 -7 5 -4 10 3 6 8 10 11 10 2 0 4 -4 4 -10z
m-133 -97 c-2 -16 -4 -3 -4 27 0 30 2 43 4 28 2 -16 2 -40 0 -55z m797 -202
c3 -4 -6 -6 -19 -3 -14 2 -25 6 -25 8 0 8 39 4 44 -5z m26 -97 l0 -34 -142 2
-143 2 138 3 137 4 0 24 0 25 -137 2 -138 2 130 6 c72 3 136 3 143 1 6 -2 12
-18 12 -37z"/>
<path d="M140 865 l0 -25 150 0 150 0 0 25 0 25 -150 0 -150 0 0 -25z"/>
<path d="M0 290 l0 -30 220 0 220 0 0 30 0 30 -220 0 -220 0 0 -30z"/>
<path d="M193 233 c48 -2 125 -2 170 0 45 1 6 3 -88 3 -93 0 -130 -2 -82 -3z"/>
</g>
</svg>
